<?xml version="1.0" encoding="utf-8"?>
<!-- Generator: Adobe Illustrator 25.0.1, SVG Export Plug-In . SVG Version: 6.00 Build 0)  -->
<svg version="1.0" id="katman_1" xmlns="http://www.w3.org/2000/svg" xmlns:xlink="http://www.w3.org/1999/xlink" x="0px" y="0px"
	 viewBox="0 0 576.3 387" style="enable-background:new 0 0 576.3 387;" xml:space="preserve">
<path d="M69.4,134.4v111.1h111.1V134.4H69.4z M173.1,190.4c-0.5,0.9-1,1.8-1.5,2.7c-0.6,1.4-2.1,2.2-3.5,2c-0.6,0-1.1,0.2-1.6,0.5
	c-1.4,0.9-2.8,1.8-4.2,2.6c-2,1.1-4.3,1.2-6.4,0.3c-3.4-1.3-7-2-10.6-2c-3.7-0.1-7.2,1.5-9.5,4.3c-0.9,1.3-1.7,2.8-2.1,4.3
	c-1.2,3.1-2.3,21.4-2.3,26.1c0,0-17.6-3.4-34.2-20.3l4.3-11.3H88.2l9.8-10.3H81.1l9.8-10.3H75L92.7,160c5.4-5.4,12.3-9.1,19.8-10.8
	c7.1-1.2,8.9-0.5,13.3,0.8l2.4,0.7l0.9,0.2l3.1,0.9c2,0.5,4.2,0.6,6.2,0.1c2.8-0.7,5.7-0.4,8.2,1c2.3,1.3,3.8,3.6,4.1,6.2
	c0.3,2.3,1.6,4.3,3.6,5.5c3,1.6,6.1,3,9.3,4.1c2.3,0.9,4.5,1.8,6.8,2.7c1.1,0.4,2.1,1.1,2.9,2.1c0.6,0.8,1,1.7,1.1,2.7
	c0.1,2,0.4,4,0.5,6l0,0C175,185.1,174.4,187.9,173.1,190.4L173.1,190.4z"/>
<path d="M382.4,165.6c-1.8-0.1-3.5,0.7-4.5,2.1c-1,1.2-1.6,2.8-1.7,4.4v2.4c0,1.7,0.6,3.3,1.7,4.5c1.1,1.2,2.7,1.9,4.3,1.8
	c1.8,0.1,3.6-0.8,4.6-2.3c1.1-1.7,1.6-3.6,1.5-5.6c0.1-2-0.5-3.9-1.7-5.5C385.5,166.3,384,165.6,382.4,165.6z"/>
<path d="M449.6,165.5c-1.8-0.1-3.6,0.7-4.7,2.1c-1.1,1.6-1.7,3.5-1.6,5.5c-0.1,1.9,0.5,3.8,1.6,5.4c1.1,1.5,2.9,2.4,4.7,2.2
	c1.8,0.1,3.6-0.7,4.7-2.2c1.2-1.6,1.8-3.6,1.7-5.6c0.1-2-0.5-4-1.7-5.5C453.1,166.2,451.4,165.5,449.6,165.5z"/>
<path d="M361.7,167.4c-0.9-1.3-2.4-2.1-4-1.9c-1.5-0.1-3,0.5-3.9,1.7c-0.9,1.2-1.4,2.7-1.6,4.2h10.5
	C362.9,169.9,362.5,168.5,361.7,167.4z"/>
<path d="M420,156.8h-5.7v23.3h5.7c3.6,0,6.4-1,8.4-3c1.9-2,2.9-4.9,2.9-8.6c0-3.6-1-6.5-2.9-8.6S423.7,156.7,420,156.8z"/>
<path d="M183.8,134.4v70.8h323v-70.8H183.8z M226,156.8h-4V180h3.7v3.7h-11.2V180h3.3v-17.2h-0.2l-9.6,19.1h-2.1l-10-19.4h-0.2V180
	h3.4v3.7h-11.1V180h3.7v-23.2h-4v-3.7h7.7l11.7,22.6h0.2l11.2-22.6h7.7L226,156.8z M255.1,179.5c-2.7,2.9-6.5,4.3-11.4,4.3h-14.1
	v-3.7h3.7v-23.3h-3.7v-3.7h13.8c5.1,0,8.9,1.4,11.7,4.3c2.7,3,4.2,6.9,4,11C259.4,172.5,257.9,176.5,255.1,179.5L255.1,179.5z
	 M294,156.8h-3.7v27h-2.6L270.3,161h-0.2v19h4.7v3.7h-12.2V180h3.5v-23.2h-4v-3.7h7.1l16.9,22.1h0.2v-18.4h-4.6v-3.7H294L294,156.8z
	 M337.8,183.8h-3.3l-7.8-23.2h-0.2l-7.5,23.2h-3.4l-8.8-27h-2.6v-3.7h11.1v3.7h-3.9l5.9,19.9h0.2l6.6-19.9h-2.8v-3.7h11v3.7h-2.8
	l6.6,20.1h0.2l5.4-20.1h-4.1v-3.7h11v3.7h-2.5L337.8,183.8z M364.5,182.3c-1.8,1.4-4.1,2.1-6.4,2c-2.7,0.1-5.4-0.9-7.4-2.7
	c-1.9-1.8-2.8-4.5-2.8-7.9c-0.1-2.9,0.8-5.8,2.6-8.1c1.8-2.2,4.5-3.3,7.3-3.2c2.5-0.1,5,0.8,6.8,2.7c1.6,1.8,2.5,4.1,2.5,6.5
	c0,0.9-0.1,1.8-0.3,2.7h-14.5c0.2,4.5,2.3,6.7,6.2,6.7c1.3,0.1,2.7-0.3,3.7-1.2c0.8-0.8,1.4-1.7,1.7-2.8l3.5,0.7
	C367,179.4,366,181.1,364.5,182.3L364.5,182.3z M390.3,180.7c-1.5,2.4-3.9,3.6-7.2,3.6s-5.8-1.3-7.2-3.9c0,0.2-0.1,0.8-0.2,1.7
	s-0.2,1.4-0.2,1.7h-4.2c0.2-1,0.3-2,0.5-3.1c0.2-1,0.2-2.1,0.2-3.2v-23h-3.4v-3.3h7.5v15.6c0.6-1.3,1.6-2.4,2.7-3.3
	c1.4-1,3-1.5,4.7-1.4c2.5-0.1,4.8,1,6.5,2.8c1.7,1.8,2.5,4.4,2.5,7.7C392.6,175.5,391.8,178.3,390.3,180.7L390.3,180.7z
	 M431.7,179.5c-2.7,2.9-6.5,4.3-11.4,4.3h-14.1v-3.7h3.7v-23.3h-3.7v-3.7h13.8c5.1,0,8.9,1.4,11.7,4.3c2.7,3,4.2,6.9,4.1,11
	C436,172.5,434.5,176.5,431.7,179.5L431.7,179.5z M457.4,181.2c-2.1,2.1-5,3.2-7.9,3.1c-2.9,0.1-5.6-1-7.6-3c-1.9-2.1-2.9-5-2.8-7.8
	c-0.1-2.9,0.9-5.7,2.7-7.9c1.8-2.2,4.5-3.3,8-3.3c3.5,0,6.2,1.1,8,3.3c1.8,2.2,2.7,4.9,2.6,7.8C460.5,176.2,459.4,179,457.4,181.2
	L457.4,181.2z M480,181.8c-1.4,1.7-3.6,2.5-6.7,2.5c-2.7,0.1-5.3-0.9-7.1-2.8c-1.8-1.8-2.7-4.5-2.7-7.9c-0.1-2.9,0.9-5.7,2.7-8
	c1.8-2.2,4.6-3.4,7.5-3.3c1.3,0,2.6,0.2,3.8,0.5c1.3,0.3,2.4,0.9,3.5,1.7l0.9,5.5l-3.4,0.4l-0.8-3.5c-1.3-0.7-2.7-1-4.1-1
	c-1.7-0.1-3.4,0.7-4.4,2.1c-1,1.7-1.5,3.6-1.4,5.6c-0.1,1.9,0.4,3.8,1.5,5.4c1.1,1.4,2.7,2.1,4.4,2c2.9,0,4.7-1.7,5.2-5.1l3.5,0.7
	C482.1,178.4,481.3,180.2,480,181.8L480,181.8z M500.4,182.5c-2,1.2-4.3,1.8-6.6,1.8c-2.9,0.1-5.8-0.6-8.3-2.1l0.7-5.2l3.3,0.3
	l-0.1,2.7c0.6,0.3,1.3,0.5,2.1,0.7c0.7,0.1,1.5,0.2,2.2,0.2c1.3,0,2.5-0.2,3.7-0.8c1-0.4,1.6-1.3,1.6-2.4c0.1-0.9-0.5-1.8-1.3-2.2
	c-1-0.5-2.1-0.8-3.3-1c-1.3-0.2-2.6-0.5-3.9-0.8c-1.2-0.3-2.3-0.9-3.2-1.7c-1-1-1.4-2.3-1.3-3.7c0-2.4,0.9-4,2.6-4.9
	c1.7-0.9,3.6-1.4,5.6-1.4c1.4,0,2.8,0.2,4.1,0.6c1.2,0.3,2.4,0.8,3.5,1.4l0.5,5.1l-3.3,0.4l-0.5-3.3c-1.3-0.6-2.7-0.9-4.1-0.9
	c-1,0-2,0.2-2.9,0.7c-0.8,0.5-1.2,1.3-1.2,2.3c0,0.9,0.5,1.7,1.3,2.1c1,0.5,2.1,0.8,3.2,0.9c1.3,0.2,2.6,0.5,3.8,0.8
	c1.2,0.3,2.3,0.9,3.2,1.7c0.9,1,1.4,2.4,1.3,3.7C503.2,179.6,502.1,181.4,500.4,182.5L500.4,182.5z"/>
<path d="M243.4,156.8h-5.7v23.3h5.7c3.6,0,6.4-1,8.4-3s2.9-4.9,2.9-8.6c0-3.6-1-6.5-2.9-8.6C249.9,157.8,247.1,156.8,243.4,156.8z"
	/>
<path d="M183.9,245.3v-37.6h114.9v37.6H183.9z M215.5,235h-2v-6.9c0.1-1.5-0.5-3-1.6-4c-1-0.8-2.3-1.3-3.6-1.3
	c-2.2-0.1-4.2,1.2-4.9,3.3c-0.3-1-1-1.9-1.9-2.5c-0.9-0.5-1.9-0.8-3-0.8c-1.9-0.1-3.7,0.9-4.6,2.6v-2.2h-6.3v3.3h2v8.5h-2v3.2h9.1
	V235H194v-5.2c0-0.9,0.2-1.8,0.7-2.6c0.5-0.7,1.3-1.1,2.2-1c1.7,0,2.6,1.2,2.6,3.6v8.4h6.3V235h-2v-5.2c0-0.9,0.2-1.8,0.7-2.6
	c0.5-0.7,1.3-1.1,2.2-1c1.8,0,2.6,1.2,2.6,3.6v8.4h6.3V235z M225.4,222.9c-2.7,0-4.7,0.8-6,2.4c-1.3,1.6-2.1,3.6-2,5.7
	c-0.1,2.1,0.7,4.2,2.2,5.6c1.6,1.4,3.6,2.1,5.6,2c2.2,0.1,4.3-0.7,5.9-2.1c1.6-1.5,2.4-3.5,2.3-5.7c0-2-0.7-4-2-5.5
	C230.1,223.7,228,222.9,225.4,222.9L225.4,222.9z M225.3,235.3c-1,0-2-0.5-2.6-1.3c-0.6-1-0.9-2.1-0.9-3.3c-0.1-1.2,0.3-2.3,1-3.3
	c0.6-0.8,1.6-1.2,2.6-1.2c1,0,1.9,0.4,2.6,1.1c0.8,0.9,1.2,2.1,1.1,3.3c0.1,1.2-0.3,2.4-1,3.4C227.3,234.9,226.3,235.3,225.3,235.3z
	 M250.3,233l-3.4-0.3l-0.7,2.3h-4.9l8.3-9.5l-0.3-2.2h-13.2l-0.5,5.2l3.2,0.3l0.7-2.4h4.6l-8.2,9.5l0.4,2.3h13.1L250.3,233z
	 M257.9,223.2h-4.5v5.4h4.5V223.2z M257.9,232.9h-4.5v5.4h4.5V232.9z M271.4,215.4h-4.2l-6.5,22.9h4.2L271.4,215.4z M280.1,215.4
	h-4.2l-6.4,22.9h4.2L280.1,215.4z M295.1,237.9l-0.1-2.3c-0.2,0.1-0.4,0.1-0.6,0.1c-0.7,0-1-0.4-1-1.2v-6.5c0.1-1.5-0.6-3-1.8-3.8
	c-1.2-0.9-2.7-1.3-4.2-1.3c-1.1,0-2.1,0.1-3.2,0.3c-1.1,0.3-2.2,0.6-3.3,1.1l-0.6,3.5l3.4,0.4l0.5-1.7c0.3-0.2,0.7-0.3,1.1-0.4
	c0.4,0,0.8-0.1,1.2-0.1c1.2,0,1.9,0.4,2.1,1.1c0.2,0.7,0.3,1.5,0.3,2.3v0.5c-0.4-0.1-0.8-0.1-1.2-0.1c-0.4,0-0.8,0-1.2,0
	c-1.6,0-3.3,0.3-4.8,0.9c-1.5,0.6-2.3,2.1-2.2,3.6c-0.1,1.3,0.4,2.6,1.5,3.3c0.9,0.6,2,1,3.1,1c1.1,0.1,2.1-0.3,3-0.9
	c0.7-0.5,1.3-1.2,1.8-2c0,1.7,1.3,3,3,3c0.1,0,0.2,0,0.3,0C293.4,238.7,294.3,238.4,295.1,237.9L295.1,237.9z M285.9,235.6
	c-0.5,0-1-0.2-1.4-0.5c-0.3-0.3-0.4-0.8-0.4-1.2c-0.1-0.7,0.3-1.4,0.9-1.7c0.6-0.3,1.3-0.4,2-0.4c0.4,0,0.7,0,1.1,0.1l1.1,0.1
	c0,1-0.3,2-1.1,2.7C287.4,235.2,286.6,235.5,285.9,235.6L285.9,235.6z"/>
</svg>
