<?xml version="1.0" encoding="UTF-8"?>
<svg id="katman_1" data-name="katman 1" xmlns="http://www.w3.org/2000/svg" version="1.1" viewBox="0 0 841.89 595.28">
  <defs>
    <style>
      .cls-1 {
        fill: #00f2fe;
      }

      .cls-1, .cls-2, .cls-3 {
        stroke-width: 0px;
      }

      .cls-2 {
        fill: #fff;
      }

      .cls-3 {
        fill: #010326;
      }
    </style>
  </defs>
  <g>
    <path class="cls-3" d="M58.66,340.39v-77.3h34.18c3.41-.04,6.79.72,9.85,2.22,2.95,1.45,5.59,3.45,7.78,5.89,2.18,2.43,3.91,5.23,5.12,8.26,1.21,2.95,1.84,6.12,1.85,9.31.05,4.82-1.25,9.55-3.75,13.67-2.36,3.97-5.92,7.08-10.18,8.87l17.63,29.08h-16.86l-15.77-25.9h-14.84v25.9h-15.02ZM73.67,301.3h18.84c1.35,0,2.68-.33,3.86-.98,1.21-.66,2.27-1.57,3.1-2.67.91-1.2,1.61-2.55,2.07-3.98.51-1.58.77-3.24.75-4.9.02-1.71-.28-3.41-.87-5.01-.54-1.45-1.33-2.8-2.34-3.97-.93-1.1-2.09-1.99-3.38-2.63-1.2-.6-2.53-.92-3.87-.93h-18.16v25.06ZM154.47,341.48c-4.25.06-8.47-.73-12.41-2.34-3.56-1.46-6.78-3.64-9.47-6.38-2.61-2.69-4.67-5.87-6.04-9.36-1.42-3.57-2.14-7.38-2.12-11.21-.03-3.92.68-7.82,2.07-11.49,1.34-3.53,3.38-6.75,5.99-9.47,2.7-2.79,5.94-4.99,9.53-6.48,3.98-1.64,8.26-2.46,12.57-2.4,4.28-.08,8.52.74,12.47,2.4,3.52,1.49,6.7,3.68,9.36,6.42,2.58,2.69,4.58,5.87,5.88,9.36,1.34,3.55,2.02,7.31,2.01,11.11,0,.95-.02,1.85-.05,2.73-.02.73-.11,1.46-.27,2.18h-44.1c.17,2.09.72,4.12,1.63,6.01.83,1.69,1.98,3.21,3.38,4.46,1.37,1.23,2.96,2.19,4.68,2.83,1.74.65,3.59.98,5.44.98,2.88,0,5.7-.72,8.21-2.12,2.37-1.19,4.23-3.17,5.28-5.6l12.52,3.48c-2.23,4.49-5.73,8.21-10.07,10.72-5,2.89-10.71,4.35-16.5,4.19ZM169.27,307.07c-.19-3.91-1.89-7.6-4.73-10.29-2.76-2.57-6.42-3.96-10.18-3.87-1.88-.02-3.75.34-5.5,1.03-1.67.68-3.2,1.65-4.5,2.89-1.34,1.28-2.43,2.79-3.21,4.46-.86,1.81-1.35,3.77-1.47,5.77h29.61ZM208.79,341.48c-2.64.02-5.26-.44-7.73-1.36-2.3-.85-4.41-2.14-6.21-3.81-1.73-1.61-3.11-3.56-4.08-5.71-1-2.26-1.5-4.72-1.47-7.19-.02-2.59.6-5.16,1.8-7.46,1.21-2.29,2.92-4.29,5.01-5.83,2.32-1.69,4.93-2.96,7.68-3.75,3.18-.94,6.48-1.4,9.79-1.36,2.5,0,5,.22,7.46.65,2.22.38,4.39,1,6.48,1.85v-3.27c.21-3.22-.96-6.39-3.21-8.71-2.66-2.22-6.07-3.31-9.52-3.05-3.05,0-6.07.55-8.93,1.63-3.16,1.23-6.16,2.84-8.93,4.79l-4.46-9.25c7-4.76,15.27-7.3,23.73-7.29,6.9-.43,13.71,1.73,19.11,6.04,4.75,4.53,7.24,10.93,6.81,17.48v17.75c-.11,1.15.18,2.3.81,3.27.7.72,1.66,1.12,2.67,1.09v12.41c-2.11.47-4.26.71-6.42.75-2.28.15-4.54-.5-6.38-1.85-1.49-1.24-2.48-2.98-2.78-4.9l-.33-3.16c-2.43,3.25-5.59,5.87-9.25,7.63-3.63,1.74-7.62,2.64-11.65,2.61ZM212.92,330.81c2.41.02,4.79-.43,7.03-1.31,1.98-.72,3.76-1.91,5.17-3.49,1.42-.91,2.3-2.45,2.4-4.13v-6.54c-1.84-.68-3.73-1.21-5.66-1.58-1.94-.39-3.9-.59-5.88-.6-3.27-.14-6.51.75-9.25,2.56-2.23,1.4-3.58,3.84-3.59,6.48-.05,2.38.99,4.66,2.83,6.17,1.94,1.64,4.43,2.52,6.97,2.43,0,0,0,0,0,0ZM252.13,311.86c-.03-3.87.68-7.71,2.07-11.33,1.34-3.5,3.39-6.68,6.01-9.36,2.7-2.74,5.92-4.93,9.47-6.42,3.96-1.65,8.23-2.46,12.52-2.4,5.59-.17,11.11,1.23,15.95,4.03,4.22,2.51,7.64,6.18,9.85,10.56l-14.27,4.35c-1.16-2.03-2.86-3.71-4.9-4.84-2.07-1.13-4.4-1.72-6.76-1.69-2.03-.02-4.03.41-5.88,1.25-1.8.82-3.41,2.01-4.74,3.48-1.39,1.57-2.46,3.41-3.16,5.39-.78,2.24-1.16,4.6-1.13,6.97-.04,2.38.36,4.74,1.18,6.97.73,1.99,1.82,3.84,3.21,5.44,1.31,1.5,2.92,2.71,4.74,3.54,1.81.83,3.78,1.26,5.77,1.25,2.55.02,5.05-.66,7.24-1.96,2-1.08,3.62-2.75,4.63-4.79l14.27,4.35c-2.06,4.46-5.45,8.19-9.7,10.67-4.91,2.87-10.53,4.3-16.22,4.14-4.29.07-8.55-.74-12.52-2.4-3.56-1.5-6.78-3.71-9.47-6.48-2.62-2.74-4.67-5.96-6.04-9.48-1.41-3.58-2.13-7.41-2.12-11.26ZM351.32,337.45c-2.34,1.02-4.74,1.9-7.19,2.63-2.89.88-5.9,1.33-8.93,1.31-1.93.02-3.85-.24-5.71-.75-1.72-.48-3.31-1.31-4.68-2.45-1.39-1.19-2.49-2.68-3.21-4.35-.85-2.05-1.26-4.26-1.2-6.48v-32.77h-7.51v-11.26h7.51v-18.51h14.59v18.51h11.98v11.21h-11.98v27.87c-.17,1.6.41,3.19,1.58,4.3,1.11.85,2.47,1.3,3.86,1.25,1.52,0,3.03-.25,4.46-.75,1.45-.5,2.61-.93,3.48-1.31l2.93,11.54ZM569.39,340.39v-77.3h32.77c3.41-.03,6.79.73,9.85,2.23,2.95,1.44,5.59,3.44,7.79,5.88,2.18,2.43,3.91,5.23,5.12,8.26,1.21,2.95,1.84,6.12,1.85,9.31,0,3.26-.59,6.49-1.76,9.54-1.12,3.01-2.77,5.8-4.88,8.22-2.13,2.41-4.72,4.37-7.62,5.77-3.05,1.47-6.41,2.22-9.79,2.18h-18.29v25.91h-15.03ZM584.4,301.3h17.42c2.71.03,5.27-1.22,6.92-3.38,1.97-2.63,2.96-5.87,2.78-9.15.03-1.8-.27-3.59-.87-5.27-.52-1.45-1.29-2.8-2.28-3.98-.9-1.06-2.04-1.9-3.32-2.45-1.22-.54-2.53-.81-3.86-.82h-16.77v25.04ZM635.69,260.91h14.59v61.19c-.11,1.77.43,3.51,1.52,4.9,1.12,1.2,2.71,1.84,4.35,1.74.98-.02,1.95-.16,2.89-.44,1.03-.28,2.03-.65,3-1.09l1.96,11.11c-2.18,1.02-4.49,1.75-6.86,2.18-2.33.47-4.7.72-7.08.75-3.88.24-7.7-1.07-10.61-3.65-2.64-2.79-4-6.56-3.75-10.4v-66.3ZM685.88,341.48c-2.64.02-5.26-.44-7.73-1.36-2.3-.85-4.42-2.14-6.22-3.81-1.73-1.61-3.11-3.56-4.08-5.71-1-2.27-1.49-4.72-1.47-7.19-.02-2.6.59-5.16,1.8-7.46,1.21-2.3,2.92-4.29,5.01-5.83,2.32-1.69,4.92-2.95,7.67-3.75,3.18-.94,6.49-1.4,9.8-1.36,2.5,0,4.99.22,7.46.65,2.22.38,4.39,1,6.48,1.85v-3.27c.21-3.22-.96-6.39-3.21-8.71-2.66-2.21-6.08-3.3-9.53-3.05-3.05,0-6.07.55-8.93,1.63-3.16,1.23-6.16,2.84-8.93,4.79l-4.46-9.25c7-4.76,15.27-7.3,23.73-7.29,6.9-.43,13.71,1.73,19.11,6.04,4.75,4.53,7.24,10.93,6.81,17.48v17.75c-.1,1.15.18,2.3.82,3.27.7.72,1.66,1.12,2.67,1.09v12.42c-2.11.47-4.26.71-6.42.75-2.28.15-4.54-.5-6.38-1.85-1.49-1.24-2.48-2.98-2.78-4.9l-.33-3.16c-2.43,3.24-5.6,5.86-9.25,7.62-3.63,1.74-7.61,2.64-11.63,2.62ZM690.01,330.81c2.4.01,4.78-.43,7.02-1.31,1.98-.72,3.76-1.91,5.17-3.49,1.41-.91,2.3-2.45,2.4-4.13v-6.54c-1.84-.68-3.73-1.21-5.66-1.58-1.94-.39-3.9-.59-5.88-.6-3.27-.14-6.51.75-9.25,2.56-2.23,1.4-3.58,3.84-3.59,6.48-.05,2.38,1,4.64,2.83,6.15,1.94,1.66,4.43,2.53,6.98,2.45h0ZM732.58,351.5c1.18.35,2.38.62,3.59.81.97.17,1.96.26,2.94.27.9.01,1.8-.17,2.63-.54.88-.44,1.63-1.09,2.17-1.91.8-1.18,1.45-2.43,1.96-3.75.65-1.6,1.34-3.6,2.07-6.01l-22.53-57.06h15.02l15.46,44.42,13.71-44.4h13.71l-23.95,68.39c-1.32,3.9-3.78,7.32-7.08,9.79-3.59,2.62-7.96,3.96-12.41,3.81-1.19,0-2.37-.09-3.54-.27-1.28-.2-2.53-.51-3.75-.92v-12.63Z"/>
    <g>
      <path class="cls-1" d="M495.47,282.48c-9.82-17.84-22.99-33.62-38.79-46.48-11.56-8.74-21.86-12.01-27.55-8.72-5.7,3.28-8.02,13.84-6.22,28.22,3.24,20.11,10.32,39.4,20.87,56.83,9.82,17.84,22.99,33.63,38.79,46.48,11.55,8.75,21.86,12.01,27.55,8.72,5.69-3.28,8.02-13.84,6.22-28.22-3.24-20.11-10.32-39.41-20.87-56.83M501.97,278.73c24.44,42.32,29.76,85,11.89,95.31-17.87,10.32-52.16-15.63-76.59-57.96-24.44-42.32-29.77-84.99-11.9-95.31,17.87-10.32,52.16,15.63,76.59,57.95Z"/>
      <path class="cls-1" d="M466.73,268.03c-20.28-.41-40.45,3.03-59.45,10.14-13.27,5.5-21.19,12.57-21.19,18.9s7.92,13.41,21.19,18.91c19,7.11,39.18,10.55,59.45,10.14,20.28.41,40.46-3.03,59.46-10.14,13.26-5.5,21.19-12.57,21.19-18.91s-7.92-13.4-21.19-18.9c-19-7.11-39.18-10.55-59.46-10.14M466.73,260.53c48.69,0,88.15,16.36,88.15,36.54s-39.46,36.55-88.15,36.55c-48.68,0-88.15-16.36-88.15-36.54s39.46-36.55,88.15-36.55Z"/>
      <path class="cls-1" d="M495.47,312.33c10.54-17.43,17.62-36.72,20.86-56.83,1.8-14.38-.53-24.94-6.22-28.22-5.7-3.29-15.99-.03-27.55,8.72-15.79,12.86-28.96,28.64-38.78,46.49-10.54,17.43-17.62,36.72-20.86,56.84-1.8,14.38.53,24.94,6.22,28.22s15.99.03,27.55-8.72c15.79-12.86,28.96-28.64,38.78-46.49M501.97,316.09c-24.43,42.32-58.73,68.27-76.59,57.95-17.87-10.32-12.54-52.98,11.9-95.31,24.43-42.32,58.72-68.27,76.59-57.95,17.87,10.32,12.55,52.99-11.89,95.31Z"/>
    </g>
  </g>
  <path class="cls-1" d="M498.68,267.4c6.43-2.43,13.62.81,16.06,7.25,1.88,4.99.38,10.62-3.73,14.01l-.18.15c-5.3,4.38-6.05,12.23-1.66,17.54.5.61,1.05,1.16,1.66,1.66l.33.26c5.3,4.38,6.06,12.23,1.67,17.54-3.37,4.09-8.98,5.59-13.95,3.74l-.39-.14c-6.45-2.41-13.62.87-16.02,7.31-.28.74-.48,1.5-.61,2.28l-.04.24c-1.15,6.79-7.56,11.35-14.35,10.22-5.26-.89-9.36-5.02-10.23-10.27h0c-1.12-6.79-7.52-11.38-14.31-10.26-.81.13-1.6.34-2.37.63h0c-6.43,2.43-13.62-.81-16.05-7.25-1.88-4.99-.39-10.62,3.72-14.01l.18-.15c5.3-4.38,6.05-12.24,1.66-17.53-.5-.6-1.05-1.17-1.66-1.66l-.33-.26c-5.31-4.38-6.05-12.24-1.67-17.53,3.38-4.09,8.98-5.59,13.95-3.74l.39.15c6.45,2.41,13.62-.87,16.02-7.32.28-.74.48-1.5.61-2.27l.04-.24c1.17-6.78,7.61-11.34,14.38-10.17,5.23.89,9.32,5,10.19,10.22h0c1.12,6.78,7.52,11.38,14.31,10.26.81-.14,1.61-.35,2.37-.63h.01Z"/>
  <path class="cls-2" d="M491.76,291.77c2.31,1.66,2.83,4.88,1.17,7.2-.33.44-.72.83-1.17,1.16l-28.43,20.53c-2.31,1.66-5.53,1.15-7.2-1.17-.63-.87-.97-1.93-.97-3.02v-41.06c0-2.85,2.31-5.15,5.15-5.15,1.08,0,2.14.34,3.02.98l28.42,20.54Z"/>
</svg>